<svg width="50" height="50" viewBox="0 0 50 50" fill="none" xmlns="http://www.w3.org/2000/svg">
<rect width="50" height="50" rx="15" fill="#FFEF5C"/>
<path d="M32.95 25C32.6971 23.0707 31.7498 21.2998 30.2853 20.0186C28.8209 18.7375 26.9397 18.034 24.9939 18.0398C23.0482 18.0456 21.1712 18.7603 19.7145 20.0502C18.2577 21.3401 17.321 23.1167 17.0796 25.0475C16.8383 26.9782 17.3089 28.9307 18.4033 30.5395C19.4977 32.1483 21.141 33.3031 23.0254 33.7877C24.9099 34.2723 26.9064 34.0534 28.6411 33.1722C30.3759 32.2909 31.73 30.8077 32.45 29M32.95 34V29H27.95" stroke="black" stroke-width="2" stroke-linecap="round" stroke-linejoin="round"/>
<path d="M24 26C24 26.2652 24.1054 26.5196 24.2929 26.7071C24.4804 26.8946 24.7348 27 25 27C25.2652 27 25.5196 26.8946 25.7071 26.7071C25.8946 26.5196 26 26.2652 26 26C26 25.7348 25.8946 25.4804 25.7071 25.2929C25.5196 25.1054 25.2652 25 25 25C24.7348 25 24.4804 25.1054 24.2929 25.2929C24.1054 25.4804 24 25.7348 24 26Z" stroke="black" stroke-width="2" stroke-linecap="round" stroke-linejoin="round"/>
</svg>
