<svg width="28" height="28" viewBox="0 0 28 28" fill="none" xmlns="http://www.w3.org/2000/svg">
<path d="M2.00008 0C1.51385 0 1.04753 0.193155 0.703716 0.536971C0.3599 0.880788 0.166748 1.3471 0.166748 1.83333V16.5C0.166748 16.9862 0.3599 17.4525 0.703716 17.7964C1.04753 18.1402 1.51385 18.3333 2.00008 18.3333C2.48631 18.3333 2.95263 18.1402 3.29644 17.7964C3.64026 17.4525 3.83341 16.9862 3.83341 16.5V1.83333C3.83341 1.3471 3.64026 0.880788 3.29644 0.536971C2.95263 0.193155 2.48631 0 2.00008 0ZM27.6667 25.6667C27.6667 25.1804 27.4736 24.7141 27.1298 24.3703C26.786 24.0265 26.3196 23.8333 25.8334 23.8333H11.1667C10.6805 23.8333 10.2142 24.0265 9.87039 24.3703C9.52657 24.7141 9.33341 25.1804 9.33341 25.6667C9.33341 26.1529 9.52657 26.6192 9.87039 26.963C10.2142 27.3068 10.6805 27.5 11.1667 27.5H25.8334C26.3196 27.5 26.786 27.3068 27.1298 26.963C27.4736 26.6192 27.6667 26.1529 27.6667 25.6667ZM20.8706 4.20383C21.2164 3.86988 21.6795 3.68509 22.1602 3.68926C22.6408 3.69344 23.1007 3.88625 23.4406 4.22617C23.7805 4.56608 23.9733 5.0259 23.9775 5.5066C23.9817 5.98729 23.7969 6.4504 23.4629 6.79617L10.6296 19.6295C10.2838 19.9635 9.82071 20.1482 9.34001 20.1441C8.85932 20.1399 8.3995 19.9471 8.05958 19.6072C7.71967 19.2673 7.52686 18.8074 7.52268 18.3267C7.5185 17.846 7.70329 17.3829 8.03725 17.0372L20.8706 4.20383Z" fill="white"/>
</svg>
