<svg width="18" height="18" viewBox="0 0 18 18" fill="none" xmlns="http://www.w3.org/2000/svg">
<path d="M3.74083 14.3947C3.02451 13.7028 2.45314 12.8752 2.06007 11.9602C1.66701 11.0452 1.46011 10.061 1.45146 9.06517C1.4428 8.06932 1.63256 7.08173 2.00967 6.16001C2.38678 5.23828 2.94368 4.40089 3.64787 3.6967C4.35207 2.9925 5.18946 2.43561 6.11118 2.0585C7.0329 1.68139 8.0205 1.49163 9.01634 1.50028C10.0122 1.50894 10.9963 1.71583 11.9114 2.1089C12.8264 2.50197 13.654 3.07334 14.3458 3.78966C15.712 5.20418 16.468 7.09869 16.4509 9.06517C16.4338 11.0316 15.645 12.9127 14.2545 14.3033C12.8639 15.6939 10.9828 16.4826 9.01634 16.4997C7.04987 16.5168 5.15535 15.7608 3.74083 14.3947ZM10.0933 9.09216L12.2158 6.96966L11.1583 5.91216L9.04333 8.03466L6.92083 5.91216L5.86333 6.96966L7.98583 9.09216L5.86333 11.2147L6.92083 12.2722L9.04333 10.1497L11.1658 12.2722L12.2233 11.2147L10.1008 9.09216H10.0933Z" fill="#D33939"/>
</svg>
