<svg width="25" height="24" viewBox="0 0 25 24" fill="none" xmlns="http://www.w3.org/2000/svg">
<path fill-rule="evenodd" clip-rule="evenodd" d="M7.41029 4.017C10.5041 3.67406 13.6264 3.67406 16.7203 4.017C18.4333 4.209 19.8153 5.558 20.0163 7.277C20.3832 10.4146 20.3832 13.5844 20.0163 16.722C19.9146 17.5573 19.5337 18.3337 18.9355 18.9254C18.3372 19.5172 17.5566 19.8895 16.7203 19.982C13.6265 20.326 10.5041 20.326 7.41029 19.982C6.57394 19.8895 5.79336 19.5172 5.19511 18.9254C4.59686 18.3337 4.216 17.5573 4.11429 16.722C3.74739 13.5847 3.74739 10.4153 4.11429 7.278C4.21596 6.44287 4.59667 5.66654 5.19472 5.07484C5.79277 4.48314 6.57312 4.11074 7.40929 4.018L7.41029 4.017ZM12.0653 7.007C12.2642 7.007 12.455 7.08602 12.5956 7.22667C12.7363 7.36732 12.8153 7.55809 12.8153 7.757V11.25H16.3083C16.5072 11.25 16.698 11.329 16.8386 11.4697C16.9793 11.6103 17.0583 11.8011 17.0583 12C17.0583 12.1989 16.9793 12.3897 16.8386 12.5303C16.698 12.671 16.5072 12.75 16.3083 12.75H12.8153V16.243C12.8153 16.4419 12.7363 16.6327 12.5956 16.7733C12.455 16.914 12.2642 16.993 12.0653 16.993C11.8664 16.993 11.6756 16.914 11.535 16.7733C11.3943 16.6327 11.3153 16.4419 11.3153 16.243V12.75H7.82229C7.62338 12.75 7.43261 12.671 7.29196 12.5303C7.15131 12.3897 7.07229 12.1989 7.07229 12C7.07229 11.8011 7.15131 11.6103 7.29196 11.4697C7.43261 11.329 7.62338 11.25 7.82229 11.25H11.3153V7.757C11.3153 7.55809 11.3943 7.36732 11.535 7.22667C11.6756 7.08602 11.8664 7.007 12.0653 7.007Z" fill="#5539D3"/>
</svg>
