<?xml version="1.0" encoding="UTF-8"?><svg id="Layer_1" xmlns="http://www.w3.org/2000/svg" xmlns:xlink="http://www.w3.org/1999/xlink" viewBox="0 0 617.46 142"><defs><style>.cls-1{fill:url(#linear-gradient);}.cls-1,.cls-2{stroke-width:0px;}.cls-2{fill:#fff;}</style><linearGradient id="linear-gradient" x1="0" y1="52.61" x2="106.94" y2="52.61" gradientUnits="userSpaceOnUse"><stop offset=".05" stop-color="#65c1a3"/><stop offset=".27" stop-color="#60b6b3"/><stop offset=".58" stop-color="#5793df"/><stop offset=".76" stop-color="#836de8"/></linearGradient></defs><ellipse class="cls-1" cx="53.47" cy="52.61" rx="53.47" ry="52.61"/><path class="cls-2" d="m57.76,46.64l-8.03.04.07-14h21.06c4.06,0,7.95,2.11,9.82,5.72.63,1.21,1.04,2.6,1.01,4.13-.1,6.14-4.8,8.93-4.8,8.93,0,0,7.01,2.59,7.2,10.08.06,2.5-.96,4.61-2.35,6.31-2.78,3.4-7.06,5.21-11.45,5.17l-8.66-.06.05-6.22,8.05-.04c3.32-.01,6.09-2.68,6.06-6,0-.05,0-.09,0-.14-.04-1.84-.83-3.13-1.76-4.02-1.24-1.17-2.92-1.74-4.62-1.74h-31.07c-1.46,0-2.91.37-4.11,1.19-1.27.86-2.54,2.27-2.54,4.43,0,1.51.64,2.74,1.46,3.69,1.49,1.71,3.71,2.6,5.98,2.59l10.56-.04.14-9.17,8.11.1-.1,15.41-20.83.08c-4.2.02-8.29-1.77-10.88-5.09-1.37-1.76-2.42-4.01-2.47-6.8-.14-8.35,7.34-9.98,7.34-9.98,0,0-5.47-3.55-5.38-9.17.1-5.62,7.73-9.31,9.94-9.31h10.32l-.05,5.9-7.55.04c-2.33.01-4.44,1.65-4.75,3.96-.02.18-.04.37-.04.56,0,.39.03.76.11,1.11.49,2.34,2.64,4.42,5.03,4.46l30.13-.05c2.09,0,4.12-.94,5.3-2.66.49-.72.84-1.57.81-2.52-.04-1.27-.81-2.3-1.73-3.09-1.4-1.2-3.22-1.8-5.07-1.81l-10.33-.04v8.05Z"/><path class="cls-2" d="m178.38,53.46c2.36.65,4.45,2.22,6.26,4.72,1.81,2.5,2.71,5.5,2.71,9,0,4.52-1.53,8.2-4.58,11.03-3.05,2.83-6.81,4.25-11.26,4.25h-28.61V26.56h26.73c4.5,0,8.27,1.33,11.3,4,3.03,2.66,4.54,6.23,4.54,10.7,0,3.27-.67,5.95-1.99,8.03-1.33,2.08-3.03,3.47-5.1,4.17Zm-22.26-16.1v11.93h10.74c1.5,0,2.77-.57,3.8-1.72,1.03-1.14,1.55-2.57,1.55-4.27s-.52-3.12-1.55-4.25c-1.03-1.13-2.3-1.7-3.8-1.7h-10.74Zm12.63,34.34c1.5,0,2.77-.57,3.82-1.72,1.05-1.14,1.57-2.57,1.57-4.29s-.52-3.1-1.55-4.25c-1.03-1.14-2.31-1.71-3.84-1.71h-12.63v11.97h12.63Z"/><path class="cls-2" d="m216.33,83.12c-3.08,0-5.99-.51-8.73-1.54-2.75-1.03-5.16-2.49-7.26-4.39-2.09-1.9-3.75-4.29-4.98-7.17-1.23-2.88-1.85-6.06-1.85-9.51s.61-6.63,1.85-9.53c1.23-2.9,2.89-5.29,4.98-7.17,2.09-1.88,4.51-3.35,7.26-4.39,2.74-1.04,5.65-1.56,8.73-1.56s5.95.52,8.7,1.56c2.74,1.04,5.16,2.5,7.26,4.39,2.09,1.88,3.75,4.28,4.98,7.17,1.23,2.9,1.85,6.07,1.85,9.53s-.62,6.63-1.85,9.51c-1.23,2.88-2.89,5.28-4.98,7.17-2.09,1.9-4.51,3.36-7.26,4.39-2.75,1.03-5.64,1.54-8.7,1.54Zm-7.4-14.27c2.01,2.16,4.47,3.24,7.4,3.24s5.4-1.08,7.4-3.24c2.01-2.16,3.01-4.94,3.01-8.34s-1-6.18-3.01-8.34c-2.01-2.16-4.47-3.24-7.4-3.24s-5.4,1.08-7.4,3.24c-2.01,2.16-3.01,4.94-3.01,8.34s1,6.19,3.01,8.34Z"/><path class="cls-2" d="m268.55,83.12c-3.08,0-5.99-.51-8.73-1.54-2.75-1.03-5.16-2.49-7.26-4.39-2.09-1.9-3.75-4.29-4.98-7.17-1.23-2.88-1.85-6.06-1.85-9.51s.61-6.63,1.85-9.53c1.23-2.9,2.89-5.29,4.98-7.17,2.09-1.88,4.51-3.35,7.26-4.39,2.74-1.04,5.65-1.56,8.73-1.56s5.95.52,8.7,1.56c2.74,1.04,5.16,2.5,7.26,4.39,2.09,1.88,3.75,4.28,4.98,7.17,1.23,2.9,1.85,6.07,1.85,9.53s-.62,6.63-1.85,9.51c-1.23,2.88-2.89,5.28-4.98,7.17-2.09,1.9-4.51,3.36-7.26,4.39-2.75,1.03-5.64,1.54-8.7,1.54Zm-7.4-14.27c2.01,2.16,4.47,3.24,7.4,3.24s5.4-1.08,7.4-3.24c2.01-2.16,3.01-4.94,3.01-8.34s-1-6.18-3.01-8.34c-2.01-2.16-4.47-3.24-7.4-3.24s-5.4,1.08-7.4,3.24c-2.01,2.16-3.01,4.94-3.01,8.34s1,6.19,3.01,8.34Z"/><path class="cls-2" d="m335.4,50.42l-12.41.7c-.2-1.17-.79-2.17-1.79-3-1-.83-2.22-1.25-3.67-1.25-1.72,0-3.1.34-4.12,1.01-1.02.68-1.53,1.65-1.53,2.92,0,.86.32,1.59.96,2.2.64.61,1.37,1.07,2.2,1.38.82.31,1.95.66,3.38,1.05,2.24.57,4.14,1.09,5.69,1.56s3.06,1,4.54,1.6c1.48.6,2.67,1.22,3.58,1.87.91.65,1.72,1.4,2.42,2.26.7.86,1.19,1.81,1.48,2.87.28,1.05.4,2.24.35,3.57-.15,4.5-1.83,7.95-5.06,10.35s-7.8,3.61-13.73,3.61-10.32-1.16-13.68-3.47c-3.36-2.31-5.2-5.63-5.52-9.94l12.37-.97c.3,1.61,1.08,2.88,2.36,3.8,1.28.92,2.77,1.38,4.47,1.38,1.85,0,3.36-.38,4.54-1.15,1.18-.77,1.77-1.83,1.77-3.18,0-2.52-2.93-4.47-8.79-5.85-2.51-.65-4.53-1.22-6.06-1.72-1.53-.49-2.98-1.08-4.36-1.77-1.38-.69-2.41-1.47-3.1-2.34-.69-.87-1.23-1.9-1.62-3.1-.39-1.19-.59-2.61-.59-4.25,0-4.16,1.61-7.31,4.82-9.47,3.21-2.16,7.72-3.24,13.53-3.24,5.29,0,9.48,1.07,12.55,3.2,3.08,2.13,4.75,5.25,5.02,9.36Z"/><path class="cls-2" d="m347.02,28.74h12.37v9.82h9.82v10.17h-9.82v17.54c0,3.09,1.12,4.9,3.36,5.42,1.72.57,3.88.58,6.46.04v10.72c-2.78.44-5.45.66-8.01.66-5.1,0-8.73-1.33-10.91-3.98-2.18-2.65-3.27-6.78-3.27-12.4v-18.01h-5.35v-10.17h5.35v-9.82Z"/><path class="cls-2" d="m414.11,53.46c2.36.65,4.45,2.22,6.26,4.72,1.81,2.5,2.71,5.5,2.71,9,0,4.52-1.53,8.2-4.58,11.03-3.05,2.83-6.81,4.25-11.26,4.25h-28.61V26.56h26.73c4.5,0,8.27,1.33,11.3,4,3.03,2.66,4.54,6.23,4.54,10.7,0,3.27-.67,5.95-1.99,8.03-1.33,2.08-3.03,3.47-5.1,4.17Zm-22.26-16.1v11.93h10.74c1.5,0,2.77-.57,3.8-1.72,1.03-1.14,1.55-2.57,1.55-4.27s-.52-3.12-1.55-4.25c-1.03-1.13-2.3-1.7-3.8-1.7h-10.74Zm12.63,34.34c1.5,0,2.77-.57,3.82-1.72,1.05-1.14,1.57-2.57,1.57-4.29s-.52-3.1-1.55-4.25c-1.03-1.14-2.31-1.71-3.84-1.71h-12.63v11.97h12.63Z"/><path class="cls-2" d="m452.05,83.12c-3.08,0-5.99-.51-8.73-1.54-2.75-1.03-5.16-2.49-7.26-4.39-2.09-1.9-3.75-4.29-4.98-7.17-1.23-2.88-1.85-6.06-1.85-9.51s.61-6.63,1.85-9.53c1.23-2.9,2.89-5.29,4.98-7.17,2.09-1.88,4.51-3.35,7.26-4.39,2.74-1.04,5.65-1.56,8.73-1.56s5.95.52,8.7,1.56c2.74,1.04,5.16,2.5,7.26,4.39,2.09,1.88,3.75,4.28,4.98,7.17,1.23,2.9,1.85,6.07,1.85,9.53s-.62,6.63-1.85,9.51c-1.23,2.88-2.89,5.28-4.98,7.17-2.09,1.9-4.51,3.36-7.26,4.39-2.75,1.03-5.64,1.54-8.7,1.54Zm-7.4-14.27c2.01,2.16,4.47,3.24,7.4,3.24s5.4-1.08,7.4-3.24c2.01-2.16,3.01-4.94,3.01-8.34s-1-6.18-3.01-8.34c-2.01-2.16-4.47-3.24-7.4-3.24s-5.4,1.08-7.4,3.24c-2.01,2.16-3.01,4.94-3.01,8.34s1,6.19,3.01,8.34Z"/><path class="cls-2" d="m500.84,37.86c3.25,0,6.09.57,8.51,1.72,2.42,1.14,4.2,2.74,5.33,4.79l.52-5.81h11.85v43.89h-11.85l-.52-5.85c-2.19,4.34-6.81,6.51-13.85,6.51-3.59,0-6.86-.94-9.8-2.83-2.94-1.88-5.27-4.55-7-8.01-1.72-3.46-2.58-7.38-2.58-11.77s.86-8.32,2.58-11.77c1.72-3.46,4.06-6.13,7-8.03,2.94-1.9,6.21-2.85,9.8-2.85Zm-3.95,30.97c1.99,2.14,4.45,3.22,7.38,3.22s5.4-1.07,7.4-3.22c2.01-2.14,3.01-4.92,3.01-8.32s-1-6.18-3.01-8.32c-2.01-2.14-4.47-3.22-7.4-3.22s-5.39,1.07-7.38,3.22c-1.99,2.14-2.99,4.92-2.99,8.32s1,6.18,2.99,8.32Z"/><path class="cls-2" d="m539.36,38.57h11.85l.55,5.18c1.43-2.1,3.23-3.61,5.41-4.52s4.95-1.36,8.33-1.36v11.11c-4.5,0-7.92,1.02-10.25,3.06-2.33,2.04-3.49,4.87-3.49,8.48v21.95h-12.41v-43.89Z"/><path class="cls-2" d="m591.28,37.86c3.25,0,6.08.57,8.49,1.72,2.41,1.14,4.17,2.74,5.28,4.79v-21.79h12.41v59.88h-11.82l-.59-5.85c-1.08,2.16-2.81,3.78-5.19,4.87-2.38,1.09-5.24,1.64-8.58,1.64-3.59,0-6.86-.94-9.8-2.83-2.94-1.88-5.27-4.55-7-8.01-1.72-3.46-2.58-7.38-2.58-11.77s.86-8.32,2.58-11.77c1.72-3.46,4.06-6.13,7-8.03,2.94-1.9,6.21-2.85,9.8-2.85Zm3.4,34.19c2.93,0,5.39-1.07,7.38-3.22s2.99-4.92,2.99-8.32-1-6.18-2.99-8.32-4.46-3.22-7.38-3.22-5.39,1.07-7.38,3.22-2.99,4.92-2.99,8.32,1,6.18,3.01,8.32c2.01,2.14,4.46,3.22,7.37,3.22Z"/><path class="cls-2" d="m547.52,129.85c1.04.27,1.95.93,2.74,1.98.79,1.05,1.19,2.3,1.19,3.77,0,1.89-.67,3.44-2.01,4.62-1.34,1.19-2.98,1.78-4.93,1.78h-12.54v-23.42h11.71c1.97,0,3.62.56,4.95,1.67s1.99,2.61,1.99,4.48c0,1.37-.29,2.49-.87,3.36s-1.33,1.45-2.23,1.75Zm-9.76-6.75v5h4.71c.66,0,1.21-.24,1.67-.72.45-.48.68-1.08.68-1.79s-.23-1.31-.68-1.78-1.01-.71-1.67-.71h-4.71Zm5.53,14.39c.66,0,1.22-.24,1.67-.72.46-.48.69-1.08.69-1.8s-.23-1.3-.68-1.78c-.45-.48-1.01-.72-1.68-.72h-5.53v5.01h5.53Z"/><path class="cls-2" d="m555.35,118.58h16.24v4.64h-10.45v4.93h9.45v4.66h-9.45v4.56h10.95v4.64h-16.74v-23.42Z"/><path class="cls-2" d="m592.08,118.58v4.64h-5.79v18.78h-5.81v-18.78h-5.81v-4.64h17.41Z"/><path class="cls-2" d="m610.87,142l-1.12-3.72h-8.82l-1.1,3.72h-5.99l6.99-23.42h9.01l6.99,23.42h-5.97Zm-8.57-8.36h6.1l-3.04-10.27-3.06,10.27Z"/></svg>