<?xml version="1.0" encoding="utf-8"?>
<!-- Generator: Adobe Illustrator 27.8.1, SVG Export Plug-In . SVG Version: 6.00 Build 0)  -->
<svg version="1.1" id="Layer_1" xmlns="http://www.w3.org/2000/svg" xmlns:xlink="http://www.w3.org/1999/xlink" x="0px" y="0px"
	 viewBox="0 0 617.46 142" style="enable-background:new 0 0 617.46 142;" xml:space="preserve">
<style type="text/css">
	.st0{fill:url(#SVGID_1_);}
	.st1{fill:#FFFFFF;}
	.st2{fill:#565656;}
</style>
<g>
	<linearGradient id="SVGID_1_" gradientUnits="userSpaceOnUse" x1="0" y1="52.608" x2="106.944" y2="52.608">
		<stop  offset="0.0541" style="stop-color:#65C1A3"/>
		<stop  offset="0.2655" style="stop-color:#60B6B3"/>
		<stop  offset="0.5799" style="stop-color:#5793DF"/>
		<stop  offset="0.7603" style="stop-color:#836DE8"/>
	</linearGradient>
	<ellipse class="st0" cx="53.47" cy="52.61" rx="53.47" ry="52.61"/>
	<path class="st1" d="M57.76,46.64l-8.03,0.04l0.07-14h21.06c4.06,0,7.95,2.11,9.82,5.72c0.63,1.21,1.04,2.6,1.01,4.13
		c-0.1,6.14-4.8,8.93-4.8,8.93s7.01,2.59,7.2,10.08c0.06,2.5-0.96,4.61-2.35,6.31c-2.78,3.4-7.06,5.21-11.45,5.17l-8.66-0.06
		l0.05-6.22l8.05-0.04c3.32-0.01,6.09-2.68,6.06-6c0-0.05,0-0.09,0-0.14c-0.04-1.84-0.83-3.13-1.76-4.02
		c-1.24-1.17-2.92-1.74-4.62-1.74H38.34c-1.46,0-2.91,0.37-4.11,1.19c-1.27,0.86-2.54,2.27-2.54,4.43c0,1.51,0.64,2.74,1.46,3.69
		c1.49,1.71,3.71,2.6,5.98,2.59l10.56-0.04l0.14-9.17l8.11,0.1l-0.1,15.41l-20.83,0.08c-4.2,0.02-8.29-1.77-10.88-5.09
		c-1.37-1.76-2.42-4.01-2.47-6.8c-0.14-8.35,7.34-9.98,7.34-9.98s-5.47-3.55-5.38-9.17s7.73-9.31,9.94-9.31s10.32,0,10.32,0
		l-0.05,5.9l-7.55,0.04c-2.33,0.01-4.44,1.65-4.75,3.96c-0.02,0.18-0.04,0.37-0.04,0.56c-0.01,0.39,0.03,0.76,0.11,1.11
		c0.49,2.34,2.64,4.42,5.03,4.46l30.13-0.05c2.09,0.01,4.12-0.94,5.3-2.66c0.49-0.72,0.84-1.57,0.81-2.52
		c-0.04-1.27-0.81-2.3-1.73-3.09c-1.4-1.2-3.22-1.8-5.07-1.81l-10.33-0.04L57.76,46.64z"/>
	<g>
		<path d="M178.38,53.46c2.36,0.65,4.45,2.22,6.26,4.72c1.81,2.5,2.71,5.5,2.71,9c0,4.52-1.53,8.2-4.58,11.03
			c-3.05,2.83-6.81,4.25-11.26,4.25H142.9v-55.9h26.73c4.5,0,8.27,1.33,11.3,4c3.03,2.66,4.54,6.23,4.54,10.7
			c0,3.27-0.67,5.95-1.99,8.03C182.15,51.37,180.45,52.75,178.38,53.46z M156.12,37.36v11.93h10.74c1.5,0,2.77-0.57,3.8-1.72
			c1.03-1.14,1.55-2.57,1.55-4.27c0-1.7-0.52-3.12-1.55-4.25c-1.03-1.13-2.3-1.7-3.8-1.7H156.12z M168.75,71.7
			c1.5,0,2.77-0.57,3.82-1.72c1.05-1.14,1.57-2.57,1.57-4.29c0-1.69-0.52-3.1-1.55-4.25c-1.03-1.14-2.31-1.71-3.84-1.71h-12.63V71.7
			H168.75z"/>
		<path d="M216.33,83.12c-3.08,0-5.99-0.51-8.73-1.54c-2.75-1.03-5.16-2.49-7.26-4.39c-2.09-1.9-3.75-4.29-4.98-7.17
			c-1.23-2.88-1.85-6.06-1.85-9.51c0-3.46,0.61-6.63,1.85-9.53c1.23-2.9,2.89-5.29,4.98-7.17c2.09-1.88,4.51-3.35,7.26-4.39
			c2.74-1.04,5.65-1.56,8.73-1.56c3.05,0,5.95,0.52,8.7,1.56c2.74,1.04,5.16,2.5,7.26,4.39c2.09,1.88,3.75,4.28,4.98,7.17
			c1.23,2.9,1.85,6.07,1.85,9.53c0,3.46-0.62,6.63-1.85,9.51c-1.23,2.88-2.89,5.28-4.98,7.17c-2.09,1.9-4.51,3.36-7.26,4.39
			C222.28,82.61,219.38,83.12,216.33,83.12z M208.92,68.85c2.01,2.16,4.47,3.24,7.4,3.24c2.93,0,5.4-1.08,7.4-3.24
			c2.01-2.16,3.01-4.94,3.01-8.34c0-3.4-1-6.18-3.01-8.34c-2.01-2.16-4.47-3.24-7.4-3.24c-2.93,0-5.4,1.08-7.4,3.24
			c-2.01,2.16-3.01,4.94-3.01,8.34C205.91,63.92,206.92,66.7,208.92,68.85z"/>
		<path d="M268.55,83.12c-3.08,0-5.99-0.51-8.73-1.54c-2.75-1.03-5.16-2.49-7.26-4.39c-2.09-1.9-3.75-4.29-4.98-7.17
			c-1.23-2.88-1.85-6.06-1.85-9.51c0-3.46,0.61-6.63,1.85-9.53c1.23-2.9,2.89-5.29,4.98-7.17c2.09-1.88,4.51-3.35,7.26-4.39
			c2.74-1.04,5.65-1.56,8.73-1.56c3.05,0,5.95,0.52,8.7,1.56c2.74,1.04,5.16,2.5,7.26,4.39c2.09,1.88,3.75,4.28,4.98,7.17
			c1.23,2.9,1.85,6.07,1.85,9.53c0,3.46-0.62,6.63-1.85,9.51c-1.23,2.88-2.89,5.28-4.98,7.17c-2.09,1.9-4.51,3.36-7.26,4.39
			C274.5,82.61,271.6,83.12,268.55,83.12z M261.14,68.85c2.01,2.16,4.47,3.24,7.4,3.24c2.93,0,5.4-1.08,7.4-3.24
			c2.01-2.16,3.01-4.94,3.01-8.34c0-3.4-1-6.18-3.01-8.34c-2.01-2.16-4.47-3.24-7.4-3.24c-2.93,0-5.4,1.08-7.4,3.24
			c-2.01,2.16-3.01,4.94-3.01,8.34C258.13,63.92,259.14,66.7,261.14,68.85z"/>
		<path d="M335.4,50.42L323,51.12c-0.2-1.17-0.79-2.17-1.79-3c-1-0.83-2.22-1.25-3.67-1.25c-1.72,0-3.1,0.34-4.12,1.01
			c-1.02,0.68-1.53,1.65-1.53,2.92c0,0.86,0.32,1.59,0.96,2.2c0.64,0.61,1.37,1.07,2.2,1.38c0.82,0.31,1.95,0.66,3.38,1.05
			c2.24,0.57,4.14,1.09,5.69,1.56s3.06,1,4.54,1.6c1.48,0.6,2.67,1.22,3.58,1.87c0.91,0.65,1.72,1.4,2.42,2.26
			c0.7,0.86,1.19,1.81,1.48,2.87c0.28,1.05,0.4,2.24,0.35,3.57c-0.15,4.5-1.83,7.95-5.06,10.35s-7.8,3.61-13.73,3.61
			c-5.76,0-10.32-1.16-13.68-3.47c-3.36-2.31-5.2-5.63-5.52-9.94l12.37-0.97c0.3,1.61,1.08,2.88,2.36,3.8
			c1.28,0.92,2.77,1.38,4.47,1.38c1.85,0,3.36-0.38,4.54-1.15c1.18-0.77,1.77-1.83,1.77-3.18c0-2.52-2.93-4.47-8.79-5.85
			c-2.51-0.65-4.53-1.22-6.06-1.72c-1.53-0.49-2.98-1.08-4.36-1.77c-1.38-0.69-2.41-1.47-3.1-2.34c-0.69-0.87-1.23-1.9-1.62-3.1
			c-0.39-1.19-0.59-2.61-0.59-4.25c0-4.16,1.61-7.31,4.82-9.47c3.21-2.16,7.72-3.24,13.53-3.24c5.29,0,9.48,1.07,12.55,3.2
			C333.46,43.19,335.13,46.31,335.4,50.42z"/>
		<path d="M347.02,28.74h12.37v9.82h9.82v10.17h-9.82v17.54c0,3.09,1.12,4.9,3.36,5.42c1.72,0.57,3.88,0.58,6.46,0.04v10.72
			c-2.78,0.44-5.45,0.66-8.01,0.66c-5.1,0-8.73-1.33-10.91-3.98c-2.18-2.65-3.27-6.78-3.27-12.4V48.74h-5.35V38.57h5.35V28.74z"/>
		<path d="M414.11,53.46c2.36,0.65,4.45,2.22,6.26,4.72c1.81,2.5,2.71,5.5,2.71,9c0,4.52-1.53,8.2-4.58,11.03
			c-3.05,2.83-6.81,4.25-11.26,4.25h-28.61v-55.9h26.73c4.5,0,8.27,1.33,11.3,4c3.03,2.66,4.54,6.23,4.54,10.7
			c0,3.27-0.67,5.95-1.99,8.03C417.87,51.37,416.17,52.75,414.11,53.46z M391.84,37.36v11.93h10.74c1.5,0,2.77-0.57,3.8-1.72
			c1.03-1.14,1.55-2.57,1.55-4.27c0-1.7-0.52-3.12-1.55-4.25c-1.03-1.13-2.3-1.7-3.8-1.7H391.84z M404.47,71.7
			c1.5,0,2.77-0.57,3.82-1.72c1.05-1.14,1.57-2.57,1.57-4.29c0-1.69-0.52-3.1-1.55-4.25c-1.03-1.14-2.31-1.71-3.84-1.71h-12.63V71.7
			H404.47z"/>
		<path d="M452.05,83.12c-3.08,0-5.99-0.51-8.73-1.54c-2.75-1.03-5.16-2.49-7.26-4.39c-2.09-1.9-3.75-4.29-4.98-7.17
			c-1.23-2.88-1.85-6.06-1.85-9.51c0-3.46,0.61-6.63,1.85-9.53c1.23-2.9,2.89-5.29,4.98-7.17c2.09-1.88,4.51-3.35,7.26-4.39
			c2.74-1.04,5.65-1.56,8.73-1.56c3.05,0,5.95,0.52,8.7,1.56c2.74,1.04,5.16,2.5,7.26,4.39c2.09,1.88,3.75,4.28,4.98,7.17
			c1.23,2.9,1.85,6.07,1.85,9.53c0,3.46-0.62,6.63-1.85,9.51c-1.23,2.88-2.89,5.28-4.98,7.17c-2.09,1.9-4.51,3.36-7.26,4.39
			C458,82.61,455.1,83.12,452.05,83.12z M444.65,68.85c2.01,2.16,4.47,3.24,7.4,3.24c2.93,0,5.4-1.08,7.4-3.24
			c2.01-2.16,3.01-4.94,3.01-8.34c0-3.4-1-6.18-3.01-8.34c-2.01-2.16-4.47-3.24-7.4-3.24c-2.93,0-5.4,1.08-7.4,3.24
			c-2.01,2.16-3.01,4.94-3.01,8.34C441.64,63.92,442.64,66.7,444.65,68.85z"/>
		<path d="M500.84,37.86c3.25,0,6.09,0.57,8.51,1.72c2.42,1.14,4.2,2.74,5.33,4.79l0.52-5.81h11.85v43.89H515.2l-0.52-5.85
			c-2.19,4.34-6.81,6.51-13.85,6.51c-3.59,0-6.86-0.94-9.8-2.83c-2.94-1.88-5.27-4.55-7-8.01c-1.72-3.46-2.58-7.38-2.58-11.77
			c0-4.39,0.86-8.32,2.58-11.77c1.72-3.46,4.06-6.13,7-8.03C493.97,38.81,497.24,37.86,500.84,37.86z M496.89,68.84
			c1.99,2.14,4.45,3.22,7.38,3.22c2.93,0,5.4-1.07,7.4-3.22c2.01-2.14,3.01-4.92,3.01-8.32c0-3.4-1-6.18-3.01-8.32
			c-2.01-2.14-4.47-3.22-7.4-3.22c-2.93,0-5.39,1.07-7.38,3.22c-1.99,2.14-2.99,4.92-2.99,8.32
			C493.89,63.92,494.89,66.69,496.89,68.84z"/>
		<path d="M539.36,38.57h11.85l0.55,5.18c1.43-2.1,3.23-3.61,5.41-4.52s4.95-1.36,8.33-1.36v11.11c-4.5,0-7.92,1.02-10.25,3.06
			c-2.33,2.04-3.49,4.87-3.49,8.48v21.95h-12.41V38.57z"/>
		<path d="M591.28,37.86c3.25,0,6.08,0.57,8.49,1.72c2.41,1.14,4.17,2.74,5.28,4.79V22.58h12.41v59.88h-11.82l-0.59-5.85
			c-1.08,2.16-2.81,3.78-5.19,4.87c-2.38,1.09-5.24,1.64-8.58,1.64c-3.59,0-6.86-0.94-9.8-2.83c-2.94-1.88-5.27-4.55-7-8.01
			c-1.72-3.46-2.58-7.38-2.58-11.77c0-4.39,0.86-8.32,2.58-11.77c1.72-3.46,4.06-6.13,7-8.03
			C584.42,38.81,587.69,37.86,591.28,37.86z M594.68,72.05c2.93,0,5.39-1.07,7.38-3.22s2.99-4.92,2.99-8.32c0-3.4-1-6.18-2.99-8.32
			s-4.46-3.22-7.38-3.22c-2.93,0-5.39,1.07-7.38,3.22s-2.99,4.92-2.99,8.32c0,3.4,1,6.18,3.01,8.32
			C589.32,70.98,591.77,72.05,594.68,72.05z"/>
	</g>
	<g>
		<path class="st2" d="M547.52,129.85c1.04,0.27,1.95,0.93,2.74,1.98c0.79,1.05,1.19,2.3,1.19,3.77c0,1.89-0.67,3.44-2.01,4.62
			c-1.34,1.19-2.98,1.78-4.93,1.78h-12.54v-23.42h11.71c1.97,0,3.62,0.56,4.95,1.67s1.99,2.61,1.99,4.48c0,1.37-0.29,2.49-0.87,3.36
			S548.43,129.56,547.52,129.85z M537.77,123.11v5h4.71c0.66,0,1.21-0.24,1.67-0.72c0.45-0.48,0.68-1.08,0.68-1.79
			s-0.23-1.31-0.68-1.78s-1.01-0.71-1.67-0.71H537.77z M543.3,137.49c0.66,0,1.22-0.24,1.67-0.72c0.46-0.48,0.69-1.08,0.69-1.8
			c0-0.71-0.23-1.3-0.68-1.78c-0.45-0.48-1.01-0.72-1.68-0.72h-5.53v5.01H543.3z"/>
		<path class="st2" d="M555.35,118.58h16.24v4.64h-10.45v4.93h9.45v4.66h-9.45v4.56h10.95V142h-16.74V118.58z"/>
		<path class="st2" d="M592.08,118.58v4.64h-5.79V142h-5.81v-18.78h-5.81v-4.64H592.08z"/>
		<path class="st2" d="M610.87,142l-1.12-3.72h-8.82l-1.1,3.72h-5.99l6.99-23.42h9.01l6.99,23.42H610.87z M602.3,133.64h6.1
			l-3.04-10.27L602.3,133.64z"/>
	</g>
</g>
</svg>
