<?xml version="1.0" encoding="UTF-8"?><svg id="Layer_1" xmlns="http://www.w3.org/2000/svg" xmlns:xlink="http://www.w3.org/1999/xlink" viewBox="0 0 617.46 142"><defs><style>.cls-1{fill:url(#linear-gradient);}.cls-1,.cls-2{stroke-width:0px;}.cls-2{fill:#fff;}</style><linearGradient id="linear-gradient" x1="0" y1="52.61" x2="106.94" y2="52.61" gradientUnits="userSpaceOnUse"><stop offset=".05" stop-color="#65c1a3"/><stop offset=".27" stop-color="#60b6b3"/><stop offset=".58" stop-color="#5793df"/><stop offset=".76" stop-color="#836de8"/></linearGradient></defs><ellipse class="cls-1" cx="53.47" cy="52.61" rx="53.47" ry="52.61"/><path class="cls-2" d="m57.76,46.64l-8.03.04.07-14h21.06c4.06,0,7.95,2.11,9.82,5.72.63,1.21,1.04,2.6,1.01,4.13-.1,6.14-4.8,8.93-4.8,8.93,0,0,7.01,2.59,7.2,10.08.06,2.5-.96,4.61-2.35,6.31-2.78,3.4-7.06,5.21-11.45,5.17l-8.66-.06.05-6.22,8.05-.04c3.32-.01,6.09-2.68,6.06-6,0-.05,0-.09,0-.14-.04-1.84-.83-3.13-1.76-4.02-1.24-1.17-2.92-1.74-4.62-1.74h-31.07c-1.46,0-2.91.37-4.11,1.19-1.27.86-2.54,2.27-2.54,4.43,0,1.51.64,2.74,1.46,3.69,1.49,1.71,3.71,2.6,5.98,2.59l10.56-.04.14-9.17,8.11.1-.1,15.41-20.83.08c-4.2.02-8.29-1.77-10.88-5.09-1.37-1.76-2.42-4.01-2.47-6.8-.14-8.35,7.34-9.98,7.34-9.98,0,0-5.47-3.55-5.38-9.17.1-5.62,7.73-9.31,9.94-9.31h10.32l-.05,5.9-7.55.04c-2.33.01-4.44,1.65-4.75,3.96-.02.18-.04.37-.04.56,0,.39.03.76.11,1.11.49,2.34,2.64,4.42,5.03,4.46l30.13-.05c2.09,0,4.12-.94,5.3-2.66.49-.72.84-1.57.81-2.52-.04-1.27-.81-2.3-1.73-3.09-1.4-1.2-3.22-1.8-5.07-1.81l-10.33-.04v8.05Z"/></svg>