<?xml version="1.0" encoding="UTF-8"?><svg id="Laag_1" xmlns="http://www.w3.org/2000/svg" xmlns:xlink="http://www.w3.org/1999/xlink" viewBox="0 0 1000 983.84"><defs><style>.cls-1{fill:url(#linear-gradient);}.cls-1,.cls-2{stroke-width:0px;}.cls-2{fill:#fff;}</style><linearGradient id="linear-gradient" x1="0" y1="491.92" x2="1000" y2="491.92" gradientUnits="userSpaceOnUse"><stop offset=".05" stop-color="#69bea2"/><stop offset=".27" stop-color="#5fb6b3"/><stop offset=".58" stop-color="#5c90cc"/><stop offset=".76" stop-color="#706aae"/></linearGradient></defs><ellipse class="cls-1" cx="500" cy="491.92" rx="500" ry="491.92"/><path class="cls-2" d="m540.06,436.15l-75.07.34.67-130.95h196.97c38.01,0,74.36,19.73,91.82,53.49,5.86,11.33,9.68,24.27,9.46,38.63-.9,57.45-44.88,83.48-44.88,83.48,0,0,65.53,24.24,67.32,94.25.6,23.34-8.98,43.09-22.01,59.05-25.96,31.78-66,48.67-107.03,48.37l-81.02-.6.45-58.12,75.28-.33c31.02-.14,56.91-25.05,56.7-56.06,0-.43,0-.85-.02-1.28-.36-17.24-7.76-29.3-16.5-37.57-11.56-10.93-27.31-16.29-43.22-16.29h-290.51c-13.61,0-27.2,3.46-38.46,11.11-11.89,8.08-23.79,21.21-23.79,41.4,0,14.14,5.94,25.58,13.66,34.49,13.89,16.02,34.72,24.31,55.92,24.23l98.73-.37,1.35-85.73,75.85.9-.9,144.08-194.81.75c-39.31.15-77.56-16.57-101.7-47.6-12.83-16.49-22.61-37.54-23.06-63.57-1.35-78.1,68.67-93.36,68.67-93.36,0,0-51.17-33.21-50.27-85.73.9-52.51,72.26-87.07,92.91-87.07h96.5l-.45,55.21-70.59.36c-21.75.11-41.56,15.43-44.38,37-.22,1.7-.35,3.46-.38,5.28-.06,3.65.32,7.12,1.01,10.4,4.61,21.85,24.69,41.34,47.02,41.66l281.75-.51c19.54.06,38.51-8.77,49.56-24.88,4.62-6.73,7.82-14.65,7.55-23.53-.36-11.85-7.61-21.54-16.19-28.91-13.11-11.26-30.15-16.87-47.43-16.94l-96.62-.38.11,75.29Z"/></svg>